<svg width="36" height="36" viewBox="0 0 36 36" fill="none" xmlns="http://www.w3.org/2000/svg">
<g clip-path="url(#clip0_2402_15)">
<path d="M30 20.4V18C30 17.3635 29.7471 16.753 29.2971 16.303C28.847 15.8529 28.2365 15.6 27.6 15.6H3.6C2.96348 15.6 2.35303 15.8529 1.90294 16.303C1.45286 16.753 1.2 17.3635 1.2 18V32.4C1.2 33.0365 1.45286 33.647 1.90294 34.0971C2.35303 34.5472 2.96348 34.8 3.6 34.8H27.6C28.2365 34.8 28.847 34.5472 29.2971 34.0971C29.7471 33.647 30 33.0365 30 32.4V30M30 20.4H20.4C19.127 20.4 17.9061 20.9057 17.0059 21.8059C16.1057 22.7061 15.6 23.927 15.6 25.2C15.6 26.4731 16.1057 27.694 17.0059 28.5941C17.9061 29.4943 19.127 30 20.4 30H30M30 20.4C31.273 20.4 32.4939 20.9057 33.3941 21.8059C34.2943 22.7061 34.8 23.927 34.8 25.2C34.8 26.4731 34.2943 27.694 33.3941 28.5941C32.4939 29.4943 31.273 30 30 30M8.4 15.6V8.40001C8.4 6.49045 9.15857 4.65911 10.5088 3.30884C11.8591 1.95858 13.6904 1.20001 15.6 1.20001C17.5096 1.20001 19.3409 1.95858 20.6912 3.30884C22.0414 4.65911 22.8 6.49045 22.8 8.40001V15.6M28.8 25.2H31.2M24 25.2H26.4M19.2 25.2H21.6" stroke="#444444" stroke-width="2"/>
</g>
<defs>
<clipPath id="clip0_2402_15">
<rect width="36" height="36" fill="white"/>
</clipPath>
</defs>
</svg>
